<mxfile host="app.diagrams.net" agent="Mozilla/5.0 (Macintosh; Intel Mac OS X 10_15_7) AppleWebKit/605.1.15 (KHTML, like Gecko) Version/18.3 Safari/605.1.15" version="28.0.9">
  <diagram name="第 1 页" id="LAZ4N3uHstaVhRphAVza">
    <mxGraphModel dx="729" dy="535" grid="1" gridSize="10" guides="1" tooltips="1" connect="1" arrows="1" fold="1" page="1" pageScale="1" pageWidth="827" pageHeight="1169" math="0" shadow="0">
      <root>
        <mxCell id="0" />
        <mxCell id="1" parent="0" />
        <mxCell id="GIN5xh7GRkXWxgkUIPJn-1" value="传统TQM" style="ellipse;whiteSpace=wrap;html=1;fontSize=16;" vertex="1" parent="1">
          <mxGeometry x="124" y="187.5" width="100" height="135" as="geometry" />
        </mxCell>
        <mxCell id="GIN5xh7GRkXWxgkUIPJn-2" value="&lt;span style=&quot;color: light-dark(rgb(0, 46, 122), rgb(237, 237, 237));&quot;&gt;数字赋能&lt;/span&gt;&lt;div&gt;&lt;span style=&quot;color: light-dark(rgb(0, 46, 122), rgb(237, 237, 237));&quot;&gt;TQM&lt;/span&gt;&lt;/div&gt;" style="ellipse;shape=cloud;whiteSpace=wrap;html=1;fontSize=20;" vertex="1" parent="1">
          <mxGeometry x="370" y="172.5" width="160" height="165" as="geometry" />
        </mxCell>
        <mxCell id="GIN5xh7GRkXWxgkUIPJn-4" value="" style="shape=flexArrow;endArrow=classic;html=1;rounded=0;endWidth=8;endSize=12.33;width=20;" edge="1" parent="1">
          <mxGeometry width="50" height="50" relative="1" as="geometry">
            <mxPoint x="230" y="200" as="sourcePoint" />
            <mxPoint x="380" y="200" as="targetPoint" />
          </mxGeometry>
        </mxCell>
        <mxCell id="GIN5xh7GRkXWxgkUIPJn-6" value="全系统" style="edgeLabel;html=1;align=center;verticalAlign=middle;resizable=0;points=[];" vertex="1" connectable="0" parent="GIN5xh7GRkXWxgkUIPJn-4">
          <mxGeometry x="-0.2909" y="3" relative="1" as="geometry">
            <mxPoint as="offset" />
          </mxGeometry>
        </mxCell>
        <mxCell id="GIN5xh7GRkXWxgkUIPJn-7" value="制度化、数字化" style="text;html=1;align=center;verticalAlign=middle;resizable=0;points=[];autosize=1;strokeColor=none;fillColor=none;" vertex="1" parent="1">
          <mxGeometry x="235" y="157.5" width="110" height="30" as="geometry" />
        </mxCell>
        <mxCell id="GIN5xh7GRkXWxgkUIPJn-8" value="" style="shape=flexArrow;endArrow=classic;html=1;rounded=0;endWidth=8;endSize=12.33;width=20;" edge="1" parent="1">
          <mxGeometry width="50" height="50" relative="1" as="geometry">
            <mxPoint x="230" y="261" as="sourcePoint" />
            <mxPoint x="380" y="261" as="targetPoint" />
          </mxGeometry>
        </mxCell>
        <mxCell id="GIN5xh7GRkXWxgkUIPJn-9" value="全流程" style="edgeLabel;html=1;align=center;verticalAlign=middle;resizable=0;points=[];" vertex="1" connectable="0" parent="GIN5xh7GRkXWxgkUIPJn-8">
          <mxGeometry x="-0.2909" y="3" relative="1" as="geometry">
            <mxPoint as="offset" />
          </mxGeometry>
        </mxCell>
        <mxCell id="GIN5xh7GRkXWxgkUIPJn-10" value="智慧产线" style="text;html=1;align=center;verticalAlign=middle;resizable=0;points=[];autosize=1;strokeColor=none;fillColor=none;" vertex="1" parent="1">
          <mxGeometry x="255" y="218.5" width="70" height="30" as="geometry" />
        </mxCell>
        <mxCell id="GIN5xh7GRkXWxgkUIPJn-11" value="" style="shape=flexArrow;endArrow=classic;html=1;rounded=0;endWidth=8;endSize=12.33;width=20;" edge="1" parent="1">
          <mxGeometry width="50" height="50" relative="1" as="geometry">
            <mxPoint x="230" y="320" as="sourcePoint" />
            <mxPoint x="380" y="320" as="targetPoint" />
          </mxGeometry>
        </mxCell>
        <mxCell id="GIN5xh7GRkXWxgkUIPJn-12" value="全员参与" style="edgeLabel;html=1;align=center;verticalAlign=middle;resizable=0;points=[];" vertex="1" connectable="0" parent="GIN5xh7GRkXWxgkUIPJn-11">
          <mxGeometry x="-0.2909" y="3" relative="1" as="geometry">
            <mxPoint as="offset" />
          </mxGeometry>
        </mxCell>
        <mxCell id="GIN5xh7GRkXWxgkUIPJn-13" value="质量文化、数智提升" style="text;html=1;align=center;verticalAlign=middle;resizable=0;points=[];autosize=1;strokeColor=none;fillColor=none;" vertex="1" parent="1">
          <mxGeometry x="225" y="277.5" width="130" height="30" as="geometry" />
        </mxCell>
        <mxCell id="GIN5xh7GRkXWxgkUIPJn-16" value="" style="shape=flexArrow;endArrow=classic;html=1;rounded=0;endWidth=8;endSize=12.33;width=20;" edge="1" parent="1">
          <mxGeometry width="50" height="50" relative="1" as="geometry">
            <mxPoint x="540" y="310" as="sourcePoint" />
            <mxPoint x="540" y="200" as="targetPoint" />
          </mxGeometry>
        </mxCell>
        <mxCell id="GIN5xh7GRkXWxgkUIPJn-17" value="持&lt;div&gt;续&lt;div&gt;改&lt;div&gt;进&lt;/div&gt;&lt;/div&gt;&lt;/div&gt;" style="edgeLabel;html=1;align=center;verticalAlign=middle;resizable=0;points=[];" vertex="1" connectable="0" parent="GIN5xh7GRkXWxgkUIPJn-16">
          <mxGeometry x="-0.2909" y="3" relative="1" as="geometry">
            <mxPoint as="offset" />
          </mxGeometry>
        </mxCell>
        <mxCell id="GIN5xh7GRkXWxgkUIPJn-18" value="混合现实&lt;div&gt;增材制造&lt;/div&gt;&lt;div&gt;DeepSeek&lt;/div&gt;" style="text;html=1;align=center;verticalAlign=middle;resizable=0;points=[];autosize=1;strokeColor=none;fillColor=none;" vertex="1" parent="1">
          <mxGeometry x="546" y="244" width="80" height="60" as="geometry" />
        </mxCell>
      </root>
    </mxGraphModel>
  </diagram>
</mxfile>
